<svg width="52" height="48" viewBox="0 0 52 48" fill="none" xmlns="http://www.w3.org/2000/svg">
<path d="M29.6771 3.30871C29.2538 3.48454 28.9046 3.85572 28.7776 4.25621C28.7141 4.4418 28.6718 5.84839 28.6718 7.38197C28.6718 9.92164 28.6506 10.1854 28.4813 10.3319C28.3226 10.4589 27.8358 10.4882 25.0527 10.5175C21.9734 10.5468 21.7935 10.5566 21.5184 10.7519C20.8305 11.2208 20.7882 11.3478 20.7564 13.0669C20.7247 14.8545 20.8094 15.1475 21.4654 15.548C21.8146 15.7727 21.8781 15.7727 24.9258 15.7727C28.185 15.7727 28.5236 15.8117 28.6189 16.2025C28.6506 16.3197 28.6824 17.6774 28.6929 19.2403C28.7247 21.9949 28.7353 22.0828 28.9681 22.4247C29.3596 23.0108 29.6876 23.0987 31.5501 23.0987C33.3808 23.0987 33.7194 23.0108 34.1427 22.4247C34.3861 22.1023 34.3861 22.0437 34.3861 19.1915C34.3861 16.4174 34.3966 16.2806 34.5977 16.0364L34.8199 15.7824L38.0686 15.7531C41.677 15.7238 41.677 15.7238 42.1109 15.0596C42.3014 14.7861 42.3225 14.5614 42.3225 13.106C42.3225 11.2306 42.2485 11.0157 41.5606 10.6835C41.2009 10.5175 40.9046 10.498 38.0051 10.498C35.4442 10.498 34.8093 10.4687 34.64 10.3612C34.4495 10.2245 34.439 10.0486 34.3861 7.20614C34.3331 4.42227 34.3226 4.1683 34.1215 3.86549C33.7405 3.26964 33.3808 3.17196 31.5818 3.17196C30.4919 3.18173 29.8993 3.2208 29.6771 3.30871Z" fill="#9454A4"/>
<path d="M5.95218 24.0364C5.74054 24.134 5.5289 24.3489 5.39133 24.6029C5.17969 25.0034 5.17969 25.1695 5.17969 32.4368C5.17969 40.7006 5.14795 40.2805 5.90985 40.7494C6.25905 40.9741 6.33313 40.9741 9.1691 40.9741H12.0791L12.4284 40.6517C12.6188 40.4759 12.8305 40.1535 12.8834 39.9387C12.9469 39.7335 13.3278 36.5589 13.7511 32.8862C14.5024 26.283 14.5024 26.2146 14.3119 25.8532C13.9733 25.2183 13.7194 25.1304 10.185 24.4857C8.39662 24.1536 6.78815 23.8801 6.60826 23.8801C6.43895 23.8801 6.14265 23.9582 5.95218 24.0364Z" fill="#9454A4"/>
<path d="M15.7195 28.8715C15.4549 30.6005 14.6083 38.3855 14.6718 38.4442C14.8411 38.6004 25.9417 43.0253 26.4178 43.123C26.9999 43.25 27.8358 43.123 28.4707 42.8202C28.7141 42.7128 32.111 40.9838 36.0157 39.0009C39.9205 37.0083 44.1215 34.8691 45.3384 34.2537C46.566 33.6383 47.7194 33.0229 47.9204 32.8862C48.8728 32.2317 48.6612 30.9521 47.5289 30.6102C47.1903 30.5125 46.8093 30.62 41.5289 32.3392C36.0157 34.1462 35.8887 34.1951 35.7723 34.4881C35.5713 35.0156 35.0316 35.67 34.5977 35.9338C33.73 36.4613 33.3808 36.4906 27.984 36.4613L23.0422 36.4319L22.8411 36.1975C22.5872 35.9045 22.5872 35.5919 22.8411 35.2989L23.0422 35.0644L28.2697 35.0156C33.4549 34.9667 33.4866 34.9667 33.8147 34.7519C34.7459 34.1365 34.7035 32.9155 33.7194 32.2415C33.4337 32.0461 33.2644 32.0364 29.8041 31.9875C25.6771 31.9289 26.1004 32.0168 24.5025 30.9326C22.1533 29.3502 19.9734 28.6273 17.1798 28.5003L15.7935 28.4417L15.7195 28.8715Z" fill="#9454A4"/>
</svg>
