<svg width="78" height="78" viewBox="0 0 78 78" fill="none" xmlns="http://www.w3.org/2000/svg">
<rect x="-0.00012207" width="78" height="78" rx="39" fill="#4C9CD4" fill-opacity="0.08"/>
<path d="M35.6644 15.9222C33.1049 16.3566 30.7133 17.5808 28.9196 19.3678C24.6922 23.5736 24.4195 30.0599 28.2797 34.5717C33.3147 40.4657 42.9443 40.2682 47.7486 34.1669C49.5318 31.9061 50.4025 28.964 50.0878 26.2392C49.7731 23.4353 48.5983 21.1054 46.5213 19.1309C44.78 17.4722 42.4408 16.3171 40.0386 15.9222C38.9687 15.7445 36.6819 15.7445 35.6644 15.9222Z" fill="#4C9CD4"/>
<path d="M50.7803 38.9749C50.3502 39.1033 49.7943 39.6463 49.6684 40.0609C49.6159 40.2485 49.5635 40.9001 49.5635 41.5122V42.6081L48.8607 42.8253C48.4621 42.9536 47.8746 43.1807 47.539 43.3485L46.9306 43.6447L46.018 42.8055C44.969 41.8281 44.7802 41.7195 44.1613 41.7195C43.2067 41.7195 42.5144 42.3711 42.5144 43.2695C42.5144 43.852 42.6298 44.0297 43.6683 45.017L44.5599 45.8759L44.2452 46.4485C44.0669 46.7645 43.8256 47.3173 43.6893 47.6826L43.4585 48.354H42.2941C41.6438 48.354 40.9514 48.4033 40.7312 48.4527C40.2172 48.5909 39.6402 49.203 39.5458 49.7263C39.4514 50.2495 39.8081 50.9702 40.3221 51.2862C40.6472 51.4935 40.8046 51.5132 42.0738 51.5132H43.469L43.6368 52.0858C43.7312 52.3919 43.983 52.9744 44.1823 53.3693L44.5599 54.09L43.6053 54.9983C42.5773 55.9757 42.3885 56.341 42.5459 57.032C42.7557 57.9798 43.9305 58.5031 44.8851 58.0786C45.0634 57.9996 45.6089 57.5553 46.0809 57.111L46.9516 56.2916L47.7173 56.6569C48.1369 56.8543 48.7243 57.0715 49.018 57.1505L49.5635 57.2789V58.4735C49.5635 59.5101 49.595 59.7174 49.8048 60.1024C50.2348 60.9219 51.1684 61.2181 52.0391 60.833C52.7419 60.5171 52.8573 60.2209 52.9202 58.6907L52.9726 57.3184L53.7279 57.0913C54.1475 56.9728 54.7349 56.7359 55.0496 56.568L55.6161 56.2719L56.4972 57.111C56.9797 57.575 57.5252 58.0094 57.714 58.0884C59.1091 58.6512 60.5043 57.3381 59.9063 56.025C59.8224 55.8473 59.3609 55.3339 58.8679 54.8798L57.9762 54.0505L58.2909 53.5174C58.4693 53.2212 58.721 52.6683 58.8469 52.2734L59.0881 51.5626L60.5462 51.5132C62.1721 51.454 62.4868 51.3454 62.8225 50.6839C63.2316 49.8645 62.9169 48.9858 62.0462 48.5712C61.6371 48.3836 61.4169 48.354 60.3154 48.354H59.0462L58.9098 47.8406C58.8259 47.5642 58.5951 47.0113 58.3853 46.6164L57.9972 45.8957L58.8679 45.0762C59.3399 44.632 59.8119 44.1186 59.8959 43.9508C60.3469 43.0523 59.791 41.9466 58.7839 41.7492C58.0497 41.6011 57.6615 41.7788 56.6231 42.7463L55.658 43.6447L54.8923 43.2893C54.4727 43.1017 53.8538 42.8648 53.5286 42.7759L52.9202 42.618V41.3049C52.9202 40.1103 52.8992 39.9622 52.6789 39.6561C52.4377 39.3007 51.6614 38.8663 51.2943 38.8861C51.1789 38.8861 50.9481 38.9354 50.7803 38.9749ZM53.1615 46.0043C53.8433 46.3103 54.8923 47.1989 55.2699 47.8011C55.9727 48.9365 56.0566 50.5457 55.4692 51.7403C55.0076 52.6585 54.2314 53.4088 53.2559 53.853C52.5845 54.169 52.3642 54.2183 51.567 54.2578C50.025 54.3269 49.018 53.9518 47.9691 52.9151C47.025 51.9871 46.7103 51.217 46.7103 49.9139C46.7208 48.0973 47.7697 46.6657 49.6369 45.9253C50.1824 45.7081 50.3712 45.6883 51.3992 45.7081C52.3852 45.7377 52.637 45.7772 53.1615 46.0043Z" fill="#4C9CD4"/>
<path d="M34.0388 40.8606C29.696 41.216 25.5736 42.2329 22.2378 43.7632C20.507 44.5629 19.1329 45.4218 18.0105 46.4189C16.5734 47.7024 15.7657 48.8279 15.2517 50.2791C15.0104 50.9406 14.9999 51.0986 14.9999 53.6358V56.3015L15.2832 56.8642C15.6398 57.5849 16.3112 58.2168 17.1084 58.5821L17.7273 58.8684L29.4023 58.898L41.0774 58.9177L40.8151 58.5524C40.427 57.9996 40.1857 57.0222 40.2697 56.3015C40.3431 55.6203 40.7836 54.7021 41.3081 54.1295L41.6753 53.7346L40.8466 53.626C39.357 53.4186 38.2242 52.6585 37.6262 51.4342C37.3955 50.9604 37.343 50.7333 37.343 49.983C37.343 49.1931 37.3745 49.0253 37.6682 48.4527C38.3081 47.189 39.5459 46.3893 41.0249 46.3005L41.8012 46.2511L41.2872 45.7278C40.1123 44.5234 39.9235 42.7858 40.7941 41.4135L41.1403 40.8705L40.8256 40.8112C40.3745 40.7224 35.2136 40.7619 34.0388 40.8606Z" fill="#4C9CD4"/>
</svg>
