<svg width="78" height="78" viewBox="0 0 78 78" fill="none" xmlns="http://www.w3.org/2000/svg">
<rect x="-0.00012207" width="78" height="78" rx="39" fill="#56DAA5" fill-opacity="0.08"/>
<path d="M37.792 17.5031C32.4816 18.2625 28.4445 22.05 27.8027 26.8594C27.1816 31.5 30.432 38.2781 34.6658 41.1656C37.6885 43.2281 40.6801 43.3594 43.7027 41.5781C47.4603 39.3656 50.6797 34.0594 51.2076 29.2125C51.7977 23.8688 48.1228 19.1063 42.326 17.7094C41.6945 17.55 41.1459 17.5031 39.8105 17.4844C38.8686 17.4656 37.968 17.475 37.792 17.5031Z" fill="#56DAA5"/>
<path d="M30.2353 41.2219C29.521 41.3062 27.7406 41.7469 26.9228 42.0469C23.2169 43.4062 20.2357 46.2187 18.9107 49.6219C18.331 51.1219 18.1343 52.1719 18.1447 53.9062C18.1447 55.1906 18.1757 55.575 18.3621 56.1844C19.1074 58.6687 20.9603 59.8969 24.6765 60.3937C25.9808 60.5719 53.0191 60.5719 54.3234 60.3937C58.0499 59.8969 59.8925 58.6687 60.6378 56.1844C60.9587 55.1156 60.9587 52.7531 60.6378 51.4031C60.0271 48.8531 58.7849 46.725 56.8492 44.9531C55.4103 43.6312 53.9818 42.7594 52.1703 42.0844C51.2386 41.7375 49.5203 41.3156 48.6093 41.2031L48.1435 41.1562L47.9572 41.6156C47.864 41.8687 47.5845 42.3375 47.3464 42.6562C46.7667 43.4437 44.831 45.2531 43.1851 46.5469C41.591 47.7844 39.6242 49.2188 39.4999 49.2188C39.4482 49.2188 38.765 48.75 37.9783 48.1781C33.9826 45.2531 31.5706 42.9844 31.0427 41.6156C30.9289 41.325 30.8046 41.1656 30.7011 41.1656C30.6183 41.175 30.4113 41.2031 30.2353 41.2219ZM51.5492 49.275C51.5802 49.3594 51.6113 49.9031 51.6113 50.4937V51.5625H52.7914C53.4435 51.5625 54.0439 51.5906 54.1371 51.6187C54.3855 51.7031 54.3855 54.1406 54.1371 54.225C54.0439 54.2531 53.4435 54.2812 52.7914 54.2812H51.6113V55.3781C51.6113 55.9875 51.5699 56.5406 51.5285 56.6062C51.456 56.6906 51.0937 56.7187 50.0482 56.7L48.6611 56.6719L48.63 55.4719L48.599 54.2812H47.3154C46.1456 54.2812 46.0214 54.2625 45.9179 54.1031C45.8662 54 45.8144 53.4656 45.8144 52.9219C45.8144 52.3781 45.8662 51.8438 45.9179 51.7406C46.0214 51.5812 46.1456 51.5625 47.3154 51.5625H48.6093V50.4094C48.6093 49.7719 48.6404 49.2188 48.6818 49.1906C48.7128 49.1531 49.365 49.125 50.1206 49.125C51.2697 49.125 51.4974 49.1437 51.5492 49.275Z" fill="#56DAA5"/>
</svg>
