<svg width="78" height="78" viewBox="0 0 78 78" fill="none" xmlns="http://www.w3.org/2000/svg">
<rect x="-0.00012207" width="78" height="78" rx="39" fill="#9454A4" fill-opacity="0.08"/>
<path d="M42.1296 16.8537C41.6608 17.0485 41.2741 17.4595 41.1335 17.903C41.0632 18.1086 41.0163 19.6663 41.0163 21.3646C41.0163 24.1772 40.9929 24.4693 40.8053 24.6315C40.6296 24.7722 40.0905 24.8046 37.0084 24.8371C33.5982 24.8695 33.399 24.8803 33.0943 25.0967C32.3325 25.6159 32.2857 25.7565 32.2505 27.6604C32.2154 29.64 32.3091 29.9645 33.0357 30.4081C33.4224 30.6569 33.4927 30.6569 36.8678 30.6569C40.4772 30.6569 40.8522 30.7001 40.9577 31.1328C40.9929 31.2626 41.028 32.7663 41.0397 34.4971C41.0749 37.5476 41.0866 37.645 41.3444 38.0236C41.778 38.6726 42.1413 38.77 44.2038 38.77C46.2312 38.77 46.6062 38.6726 47.075 38.0236C47.3445 37.6666 47.3445 37.6017 47.3445 34.443C47.3445 31.3708 47.3562 31.2194 47.5789 30.9489L47.825 30.6677L51.4227 30.6352C55.4189 30.6028 55.4189 30.6028 55.8994 29.8672C56.1103 29.5643 56.1337 29.3155 56.1337 27.7037C56.1337 25.6267 56.0517 25.3888 55.29 25.021C54.8915 24.8371 54.5634 24.8154 51.3524 24.8154C48.5164 24.8154 47.8133 24.783 47.6258 24.664C47.4148 24.5125 47.4031 24.3178 47.3445 21.1699C47.2859 18.0869 47.2742 17.8057 47.0515 17.4703C46.6297 16.8105 46.2312 16.7023 44.239 16.7023C43.0319 16.7131 42.3757 16.7564 42.1296 16.8537Z" fill="#9454A4"/>
<path d="M15.8557 39.8085C15.6213 39.9167 15.3869 40.1546 15.2346 40.4359C15.0002 40.8794 15.0002 41.0633 15.0002 49.1115C15.0002 58.2631 14.9651 57.798 15.8088 58.3172C16.1955 58.566 16.2776 58.566 19.4183 58.566H22.641L23.0277 58.209C23.2386 58.0143 23.473 57.6573 23.5316 57.4194C23.6019 57.1922 24.0238 53.6765 24.4926 49.6091C25.3246 42.2965 25.3246 42.2208 25.1137 41.8205C24.7387 41.1174 24.4574 41.02 20.5433 40.3061C18.5628 39.9383 16.7815 39.6354 16.5823 39.6354C16.3948 39.6354 16.0666 39.7219 15.8557 39.8085Z" fill="#9454A4"/>
<path d="M26.6724 45.1631C26.3794 47.0778 25.4419 55.6993 25.5122 55.7642C25.6997 55.9373 37.9929 60.8377 38.5202 60.9458C39.1648 61.0865 40.0905 60.9458 40.7937 60.6105C41.0632 60.4915 44.825 58.5768 49.1493 56.3808C53.4736 54.1741 58.126 51.805 59.4737 51.1235C60.8331 50.442 62.1105 49.7605 62.3331 49.6091C63.3878 48.8843 63.1534 47.4672 61.8995 47.0886C61.5245 46.9804 61.1026 47.0994 55.2549 49.0033C49.1493 51.0046 49.0087 51.0586 48.8798 51.3832C48.6571 51.9673 48.0594 52.6921 47.579 52.9842C46.618 53.5683 46.2313 53.6007 40.2546 53.5683L34.7819 53.5358L34.5592 53.2762C34.2779 52.9517 34.2779 52.6055 34.5592 52.281L34.7819 52.0214L40.571 51.9673C46.3133 51.9132 46.3485 51.9132 46.7118 51.6752C47.743 50.9937 47.6961 49.6415 46.6063 48.8951C46.2899 48.6788 46.1024 48.668 42.2703 48.6139C37.6999 48.549 38.1686 48.6463 36.3991 47.4456C33.7975 45.6932 31.3834 44.8927 28.2896 44.752L26.7544 44.6871L26.6724 45.1631Z" fill="#9454A4"/>
</svg>
