<svg width="49" height="44" viewBox="0 0 49 44" fill="none" xmlns="http://www.w3.org/2000/svg">
<path d="M22.2855 3.2589C17.5367 3.93797 13.9265 7.32495 13.3526 11.6257C12.7972 15.7756 15.7039 21.837 19.4899 24.4191C22.193 26.2635 24.8682 26.3809 27.5712 24.788C30.9315 22.8095 33.8104 18.0644 34.2825 13.73C34.8101 8.95138 31.5239 4.6925 26.3401 3.44334C25.7754 3.30082 25.2848 3.2589 24.0906 3.24213C23.2483 3.22537 22.4429 3.23375 22.2855 3.2589Z" fill="#56DAA5"/>
<path d="M15.5281 24.4694C14.8893 24.5449 13.2971 24.9389 12.5658 25.2072C9.25187 26.4228 6.58588 28.9379 5.40099 31.9812C4.88261 33.3225 4.70673 34.2615 4.71598 35.8125C4.71598 36.961 4.74375 37.3048 4.91038 37.8497C5.57687 40.0713 7.23386 41.1696 10.5571 41.6139C11.7235 41.7732 35.9025 41.7732 37.0689 41.6139C40.4014 41.1696 42.0491 40.0713 42.7156 37.8497C43.0026 36.894 43.0026 34.7813 42.7156 33.574C42.1694 31.2937 41.0586 29.3906 39.3276 27.8061C38.0409 26.624 36.7634 25.8444 35.1434 25.2407C34.3103 24.9305 32.7737 24.5533 31.9591 24.4527L31.5425 24.4108L31.3759 24.8216C31.2926 25.0479 31.0426 25.4671 30.8297 25.7521C30.3113 26.4564 28.5803 28.0744 27.1084 29.2313C25.6829 30.338 23.9241 31.6207 23.813 31.6207C23.7667 31.6207 23.1557 31.2015 22.4522 30.6901C18.8791 28.0744 16.7222 26.0456 16.2501 24.8216C16.1483 24.5617 16.0372 24.4191 15.9446 24.4191C15.8706 24.4275 15.6854 24.4527 15.5281 24.4694ZM34.588 31.671C34.6158 31.7464 34.6436 32.2327 34.6436 32.7608V33.7166H35.6989C36.282 33.7166 36.8189 33.7417 36.9023 33.7669C37.1244 33.8423 37.1244 36.0221 36.9023 36.0975C36.8189 36.1227 36.282 36.1478 35.6989 36.1478H34.6436V37.1287C34.6436 37.6736 34.6065 38.1683 34.5695 38.227C34.5047 38.3024 34.1807 38.3276 33.2458 38.3108L32.0053 38.2856L31.9776 37.2125L31.9498 36.1478H30.8019C29.7559 36.1478 29.6448 36.131 29.5523 35.9885C29.506 35.8963 29.4597 35.4184 29.4597 34.9322C29.4597 34.4459 29.506 33.9681 29.5523 33.8759C29.6448 33.7333 29.7559 33.7166 30.8019 33.7166H31.9591V32.6854C31.9591 32.1153 31.9868 31.6207 32.0239 31.5955C32.0516 31.562 32.6348 31.5368 33.3106 31.5368C34.3381 31.5368 34.5417 31.5536 34.588 31.671Z" fill="#56DAA5"/>
</svg>
