<svg width="52" height="49" viewBox="0 0 52 49" fill="none" xmlns="http://www.w3.org/2000/svg">
<g id="ark_setting_1 1">
<g id="Group">
<path id="Vector" d="M20.5022 7.73814C18.3088 8.11042 16.2592 9.15954 14.722 10.6909C11.0992 14.2952 10.8655 19.8539 14.1736 23.7204C18.4886 28.7715 26.7409 28.6023 30.8581 23.3735C32.3863 21.436 33.1325 18.9147 32.8628 16.5796C32.5931 14.1767 31.5863 12.18 29.8064 10.4879C28.3141 9.06648 26.3094 8.07657 24.2508 7.73814C23.3339 7.58585 21.3742 7.58585 20.5022 7.73814Z" fill="#4C9CD4"/>
<path id="Vector_2" d="M33.4562 27.4939C33.0876 27.6039 32.6112 28.0692 32.5033 28.4246C32.4584 28.5853 32.4134 29.1437 32.4134 29.6683V30.6074L31.8111 30.7936C31.4695 30.9036 30.9661 31.0982 30.6784 31.242L30.157 31.4958L29.375 30.7767C28.476 29.939 28.3142 29.846 27.7838 29.846C26.9658 29.846 26.3725 30.4044 26.3725 31.1743C26.3725 31.6735 26.4713 31.8258 27.3613 32.6719L28.1254 33.4079L27.8557 33.8987C27.7029 34.1694 27.4962 34.6432 27.3793 34.9563L27.1815 35.5316H26.1837C25.6263 35.5316 25.033 35.5739 24.8442 35.6162C24.4038 35.7346 23.9093 36.2592 23.8284 36.7076C23.7475 37.156 24.0532 37.7737 24.4937 38.0444C24.7723 38.2221 24.9072 38.239 25.9949 38.239H27.1905L27.3343 38.7297C27.4152 38.992 27.631 39.4912 27.8018 39.8296L28.1254 40.4473L27.3074 41.2256C26.4264 42.0633 26.2646 42.3763 26.3994 42.9685C26.5792 43.7808 27.586 44.2292 28.4041 43.8654C28.5569 43.7977 29.0244 43.417 29.4289 43.0362L30.175 42.334L30.8313 42.647C31.1908 42.8163 31.6943 43.0024 31.946 43.0701L32.4134 43.1801V44.2038C32.4134 45.0922 32.4404 45.2699 32.6202 45.5998C32.9887 46.3021 33.7888 46.5559 34.5349 46.2259C35.1372 45.9552 35.2361 45.7014 35.2901 44.3899L35.335 43.2139L35.9822 43.0193C36.3418 42.9178 36.8452 42.7147 37.1149 42.5709L37.6004 42.3171L38.3555 43.0362C38.769 43.4339 39.2364 43.8062 39.3983 43.8738C40.5939 44.3561 41.7895 43.2308 41.2771 42.1056C41.2052 41.9533 40.8096 41.5133 40.3871 41.1241L39.623 40.4134L39.8927 39.9565C40.0455 39.7027 40.2613 39.2289 40.3691 38.8905L40.5759 38.2813L41.8254 38.239C43.2188 38.1882 43.4885 38.0952 43.7761 37.5283C44.1267 36.8261 43.8571 36.0731 43.1109 35.7177C42.7603 35.557 42.5716 35.5316 41.6277 35.5316H40.5399L40.4231 35.0916C40.3511 34.8547 40.1534 34.3809 39.9736 34.0425L39.641 33.4249L40.3871 32.7226C40.7916 32.3419 41.1962 31.9019 41.2681 31.7581C41.6546 30.9882 41.1782 30.0406 40.3152 29.8714C39.6859 29.7445 39.3533 29.8967 38.4634 30.7259L37.6363 31.4958L36.9801 31.1912C36.6205 31.0305 36.0901 30.8274 35.8114 30.7513L35.2901 30.6159V29.4906C35.2901 28.4669 35.2721 28.34 35.0833 28.0777C34.8765 27.7731 34.2113 27.4008 33.8967 27.4178C33.7978 27.4178 33.6 27.4601 33.4562 27.4939ZM35.4968 33.5179C36.0811 33.7802 36.9801 34.5417 37.3037 35.0578C37.906 36.0308 37.9779 37.4099 37.4745 38.4336C37.079 39.2205 36.4137 39.8635 35.5777 40.2442C35.0024 40.5149 34.8136 40.5572 34.1304 40.5911C32.809 40.6503 31.946 40.3288 31.047 39.4404C30.238 38.6451 29.9683 37.9852 29.9683 36.8684C29.9773 35.3116 30.8762 34.0848 32.4763 33.4502C32.9438 33.2641 33.1056 33.2472 33.9866 33.2641C34.8316 33.2895 35.0473 33.3233 35.4968 33.5179Z" fill="#4C9CD4"/>
<path id="Vector_3" d="M19.1089 29.1099C15.3873 29.4145 11.8544 30.286 8.99573 31.5974C7.51246 32.2827 6.33483 33.0188 5.37296 33.8733C4.14139 34.9732 3.4492 35.9377 3.00872 37.1814C2.80196 37.7483 2.79297 37.8837 2.79297 40.0581V42.3425L3.03569 42.8247C3.34133 43.4424 3.91666 43.9839 4.59986 44.2969L5.13024 44.5423L15.1356 44.5676L25.1409 44.5846L24.9161 44.2715C24.5835 43.7977 24.3768 42.9601 24.4487 42.3425C24.5116 41.7587 24.8892 40.9718 25.3387 40.4811L25.6533 40.1427L24.9431 40.0496C23.6666 39.8719 22.6957 39.2205 22.1833 38.1713C21.9856 37.7652 21.9406 37.5706 21.9406 36.9276C21.9406 36.2508 21.9676 36.1069 22.2193 35.6162C22.7677 34.5332 23.8284 33.8479 25.0959 33.7718L25.7612 33.7295L25.3207 33.281C24.3138 32.2488 24.152 30.7598 24.8982 29.5837L25.1948 29.1184L24.9251 29.0676C24.5386 28.9915 20.1157 29.0253 19.1089 29.1099Z" fill="#4C9CD4"/>
</g>
</g>
</svg>
